<svg class="diagram-root" style="background: #f5f6f6" xmlns="http://www.w3.org/2000/svg" xmlns:xlink="http://www.w3.org/1999/xlink"><style>.diagram-root { font-family: "Helvetica Neue", sans-serif; font-size: 12px; } .t { overflow: visible; } .t-bg { y: 40; fill: #fff;   } .th { fill: #005aa0;   } .tht { fill: #fff; font-size: 14px;  } .tf { fill: #323c46; overflow: visible; } .tf.pk { fill: #005aa0; font-weight: bold; } .tf.fk { font-weight: bold; } .ty { fill: #adb1b5; font-weight: normal; text-anchor: end; } .r { fill: transparent; stroke: #c3c3c3; stroke-width: 1; } .l { stroke: 1; } .i { fill: #c2c7ce; stroke: #c2c7ce; } .i.ix { fill: #afb3b6; stroke: #000; } .fa { fill: transparent; overflow: visible; } .fa .bg.hover { fill: #f7f7f7; } .c { cy: 12; r: 4; stroke: #d2d2dc; fill: #d2d2dc; } .hr { fill: transparent; stroke: #323c46; stroke-opacity: 0.035; stroke-width: 13; } .dc { stroke: #fa5a3c; fill: #fa5a3c; } .x { stroke: white; stroke-width: 1; } .hl .th { fill: #1b9bff; } .hl .tht {  } .fhl .bg { fill: #e7f4ff; } .fhls .bg {  } .r.hl { stroke: #1b9bff; } .dim { opacity: 0.25; }</style><g class="drawing-wrapper" transform="translate(2, 18) scale(1,1)"><g class="rs"><path d="M 601.18 256.22 m -1, 0 a 1,1 0 1,0 2,0 a 1,1 0 1,0 -2,0 M 601.18 256.22 m -0.5, 0 a 0.5,0.5 0 1,0 1,0 a 0.5,0.5 0 1,0 -1,0  M601.18 256.22 L601.18 256.22 613.18 256.22 M 601.18 262.22 m -1, 0 a 1,1 0 1,0 2,0 a 1,1 0 1,0 -2,0 M 601.18 262.22 m -0.5, 0 a 0.5,0.5 0 1,0 1,0 a 0.5,0.5 0 1,0 -1,0  M601.18 262.22 L601.18 262.22 608.18 256.22 601.18 250.22000000000003 M 601.18 250.22000000000003 m -1, 0 a 1,1 0 1,0 2,0 a 1,1 0 1,0 -2,0 M 601.18 250.22000000000003 m -0.5, 0 a 0.5,0.5 0 1,0 1,0 a 0.5,0.5 0 1,0 -1,0  M613.18 256.22 C 663.18 256.22, 724.0079999999998 90.00999999999999, 511.8 90.00999999999999 M 499.8 90.00999999999999 m -1, 0 a 1,1 0 1,0 2,0 a 1,1 0 1,0 -2,0 M 499.8 90.00999999999999 m -0.5, 0 a 0.5,0.5 0 1,0 1,0 a 0.5,0.5 0 1,0 -1,0  M499.8 90.00999999999999 L499.8 90.00999999999999 511.8 90.00999999999999 M505.8 96.00999999999999 L505.8 96.00999999999999 505.8 84.00999999999999" id="h272557789" class="r"></path><path d="M 433.55 281.22 m -1, 0 a 1,1 0 1,0 2,0 a 1,1 0 1,0 -2,0 M 433.55 281.22 m -0.5, 0 a 0.5,0.5 0 1,0 1,0 a 0.5,0.5 0 1,0 -1,0  M433.55 281.22 L433.55 281.22 421.55 281.22 M 433.55 287.22 m -1, 0 a 1,1 0 1,0 2,0 a 1,1 0 1,0 -2,0 M 433.55 287.22 m -0.5, 0 a 0.5,0.5 0 1,0 1,0 a 0.5,0.5 0 1,0 -1,0  M433.55 287.22 L433.55 287.22 426.55 281.22 433.55 275.22 M 433.55 275.22 m -1, 0 a 1,1 0 1,0 2,0 a 1,1 0 1,0 -2,0 M 433.55 275.22 m -0.5, 0 a 0.5,0.5 0 1,0 1,0 a 0.5,0.5 0 1,0 -1,0  M421.55 281.22 Q 371.95 281.22, 322.35 184.11 T 223.15 87 M 211.15 87 m -1, 0 a 1,1 0 1,0 2,0 a 1,1 0 1,0 -2,0 M 211.15 87 m -0.5, 0 a 0.5,0.5 0 1,0 1,0 a 0.5,0.5 0 1,0 -1,0  M211.15 87 L211.15 87 223.15 87 M217.15 93 L217.15 93 217.15 81" id="h1837236372" class="r"></path><path d="M 678.48 533.06 m -1, 0 a 1,1 0 1,0 2,0 a 1,1 0 1,0 -2,0 M 678.48 533.06 m -0.5, 0 a 0.5,0.5 0 1,0 1,0 a 0.5,0.5 0 1,0 -1,0  M678.48 533.06 L678.48 533.06 690.48 533.06 M 678.48 539.06 m -1, 0 a 1,1 0 1,0 2,0 a 1,1 0 1,0 -2,0 M 678.48 539.06 m -0.5, 0 a 0.5,0.5 0 1,0 1,0 a 0.5,0.5 0 1,0 -1,0  M678.48 539.06 L678.48 539.06 685.48 533.06 678.48 527.06 M 678.48 527.06 m -1, 0 a 1,1 0 1,0 2,0 a 1,1 0 1,0 -2,0 M 678.48 527.06 m -0.5, 0 a 0.5,0.5 0 1,0 1,0 a 0.5,0.5 0 1,0 -1,0  M690.48 533.06 C 740.48 533.06, 847.688 90.00999999999999, 511.8 90.00999999999999 M 499.8 90.00999999999999 m -1, 0 a 1,1 0 1,0 2,0 a 1,1 0 1,0 -2,0 M 499.8 90.00999999999999 m -0.5, 0 a 0.5,0.5 0 1,0 1,0 a 0.5,0.5 0 1,0 -1,0  M499.8 90.00999999999999 L499.8 90.00999999999999 511.8 90.00999999999999 M505.8 96.00999999999999 L505.8 96.00999999999999 505.8 84.00999999999999" id="h4257222551" class="r"></path><path d="M 513.18 558.06 m -1, 0 a 1,1 0 1,0 2,0 a 1,1 0 1,0 -2,0 M 513.18 558.06 m -0.5, 0 a 0.5,0.5 0 1,0 1,0 a 0.5,0.5 0 1,0 -1,0  M513.18 558.06 L513.18 558.06 501.17999999999995 558.06 M 513.18 564.06 m -1, 0 a 1,1 0 1,0 2,0 a 1,1 0 1,0 -2,0 M 513.18 564.06 m -0.5, 0 a 0.5,0.5 0 1,0 1,0 a 0.5,0.5 0 1,0 -1,0  M513.18 564.06 L513.18 564.06 506.17999999999995 558.06 513.18 552.06 M 513.18 552.06 m -1, 0 a 1,1 0 1,0 2,0 a 1,1 0 1,0 -2,0 M 513.18 552.06 m -0.5, 0 a 0.5,0.5 0 1,0 1,0 a 0.5,0.5 0 1,0 -1,0  M501.17999999999995 558.06 Q 431.67 558.06, 362.17 322.53 T 223.15 87 M 211.15 87 m -1, 0 a 1,1 0 1,0 2,0 a 1,1 0 1,0 -2,0 M 211.15 87 m -0.5, 0 a 0.5,0.5 0 1,0 1,0 a 0.5,0.5 0 1,0 -1,0  M211.15 87 L211.15 87 223.15 87 M217.15 93 L217.15 93 217.15 81" id="h3199896609" class="r"></path><path d="M 42.93 309.62 m -1, 0 a 1,1 0 1,0 2,0 a 1,1 0 1,0 -2,0 M 42.93 309.62 m -0.5, 0 a 0.5,0.5 0 1,0 1,0 a 0.5,0.5 0 1,0 -1,0  M42.93 309.62 L42.93 309.62 30.93 309.62 M 42.93 315.62 m -1, 0 a 1,1 0 1,0 2,0 a 1,1 0 1,0 -2,0 M 42.93 315.62 m -0.5, 0 a 0.5,0.5 0 1,0 1,0 a 0.5,0.5 0 1,0 -1,0  M42.93 315.62 L42.93 315.62 35.93 309.62 42.93 303.62 M 42.93 303.62 m -1, 0 a 1,1 0 1,0 2,0 a 1,1 0 1,0 -2,0 M 42.93 303.62 m -0.5, 0 a 0.5,0.5 0 1,0 1,0 a 0.5,0.5 0 1,0 -1,0  M30.93 309.62 C -39.758 309.62, -32 87, 18 87 M 30 87 m -1, 0 a 1,1 0 1,0 2,0 a 1,1 0 1,0 -2,0 M 30 87 m -0.5, 0 a 0.5,0.5 0 1,0 1,0 a 0.5,0.5 0 1,0 -1,0  M30 87 L30 87 18 87 M24 93 L24 93 24 81" id="h221257298" class="r"></path><path d="M 236.58 588.11 m -1, 0 a 1,1 0 1,0 2,0 a 1,1 0 1,0 -2,0 M 236.58 588.11 m -0.5, 0 a 0.5,0.5 0 1,0 1,0 a 0.5,0.5 0 1,0 -1,0  M236.58 588.11 L236.58 588.11 248.58 588.11 M 236.58 594.11 m -1, 0 a 1,1 0 1,0 2,0 a 1,1 0 1,0 -2,0 M 236.58 594.11 m -0.5, 0 a 0.5,0.5 0 1,0 1,0 a 0.5,0.5 0 1,0 -1,0  M236.58 594.11 L236.58 594.11 243.58 588.11 236.58 582.11 M 236.58 582.11 m -1, 0 a 1,1 0 1,0 2,0 a 1,1 0 1,0 -2,0 M 236.58 582.11 m -0.5, 0 a 0.5,0.5 0 1,0 1,0 a 0.5,0.5 0 1,0 -1,0  M248.58 588.11 C 298.58000000000004 588.11, 313.83799999999997 87, 223.15 87 M 211.15 87 m -1, 0 a 1,1 0 1,0 2,0 a 1,1 0 1,0 -2,0 M 211.15 87 m -0.5, 0 a 0.5,0.5 0 1,0 1,0 a 0.5,0.5 0 1,0 -1,0  M211.15 87 L211.15 87 223.15 87 M217.15 93 L217.15 93 217.15 81" id="h1168633520" class="r"></path></g><g class="hrs"></g><g class="ts"><svg width="165.3" height="150" x="513.18" y="476.06" id="h395607763" class="t"><rect height="40" width="165.3" class="th"></rect><text x="13" y="25" class="tht">Deparment_managers</text><rect height="110" width="165.3" class="t-bg" y="40"></rect><text x="13" y="61" class="tf fk">dept_no<tspan x="152.3" class="ty">int</tspan></text><text x="13" y="86" class="tf fk">emp_no<tspan x="152.3" class="ty">int</tspan></text><text x="13" y="111" class="tf">from_date<tspan x="152.3" class="ty">DATE</tspan></text><text x="13" y="136" class="tf">to_date<tspan x="152.3" class="ty">DATE</tspan></text></svg><svg width="131.35" height="150" x="42.93" y="252.62" id="h3858243705" class="t"><rect height="40" width="131.35" class="th"></rect><text x="13" y="25" class="tht">Salaries</text><rect height="110" width="131.35" class="t-bg" y="40"></rect><text x="13" y="61" class="tf fk">emp_no<tspan x="118.35" class="ty">int</tspan></text><text x="13" y="86" class="tf">salary<tspan x="118.35" class="ty">INTEGER</tspan></text><text x="13" y="111" class="tf">from_date<tspan x="118.35" class="ty">DATE</tspan></text><text x="13" y="136" class="tf">to_date<tspan x="118.35" class="ty">DATE</tspan></text></svg><svg width="143.8" height="150" x="92.78" y="531.11" id="h3517680912" class="t"><rect height="40" width="143.8" class="th"></rect><text x="13" y="25" class="tht">Titles</text><rect height="110" width="143.8" class="t-bg" y="40"></rect><text x="13" y="61" class="tf fk">emp_no<tspan x="130.8" class="ty">int</tspan></text><text x="13" y="86" class="tf">title<tspan x="130.8" class="ty">VARCHAR(40)</tspan></text><text x="13" y="111" class="tf">from_date<tspan x="130.8" class="ty">DATE</tspan></text><text x="13" y="136" class="tf">to_date<tspan x="130.8" class="ty">DATE</tspan></text></svg><svg width="185.18" height="100" x="314.62" y="33.01" id="h3708248841" class="t"><rect height="40" width="185.18" class="th"></rect><text x="13" y="25" class="tht">Departments</text><rect height="60" width="185.18" class="t-bg" y="40"></rect><text x="13" y="61" class="tf pk">dept_no<tspan x="172.18" class="ty">VARCHAR(5)</tspan></text><path d="M7,14A2,2 0 0,1 5,12A2,2 0 0,1 7,10A2,2 0 0,1 9,12A2,2 0 0,1 7,14M12.65,10C11.83,7.67 9.61,6 7, 6A6, 6 0 0, 0 1, 12A6, 6 0 0, 0 7, 18C9.61, 18 11.83, 16.33 12.65, 14H17V18H21V14H23V10H12.65Z" class="i pk" transform="translate(79.72296875, 48) scale(0.65)"></path><text x="13" y="86" class="tf">dept_name<tspan x="172.18" class="ty">VARCHAR(25)</tspan></text></svg><svg width="181.15" height="200" x="30" y="30" id="h3299212598" class="t"><rect height="40" width="181.15" class="th"></rect><text x="13" y="25" class="tht">Employees</text><rect height="160" width="181.15" class="t-bg" y="40"></rect><text x="13" y="61" class="tf pk">emp_no<tspan x="168.15" class="ty">INT</tspan></text><path d="M7,14A2,2 0 0,1 5,12A2,2 0 0,1 7,10A2,2 0 0,1 9,12A2,2 0 0,1 7,14M12.65,10C11.83,7.67 9.61,6 7, 6A6, 6 0 0, 0 1, 12A6, 6 0 0, 0 7, 18C9.61, 18 11.83, 16.33 12.65, 14H17V18H21V14H23V10H12.65Z" class="i pk" transform="translate(128.819921875, 48) scale(0.65)"></path><text x="13" y="86" class="tf">birth_date<tspan x="168.15" class="ty">DATE</tspan></text><text x="13" y="111" class="tf">first_name<tspan x="168.15" class="ty">VARCHAR(40)</tspan></text><text x="13" y="136" class="tf">last_name<tspan x="168.15" class="ty">VARCHAR(40)</tspan></text><text x="13" y="161" class="tf">gender<tspan x="168.15" class="ty">VARCHAR(2)</tspan></text><text x="13" y="186" class="tf">hire_date<tspan x="168.15" class="ty">DATE)</tspan></text></svg><svg width="167.63" height="150" x="433.55" y="199.22" id="h3468021851" class="t"><rect height="40" width="167.63" class="th"></rect><text x="13" y="25" class="tht">Department_employee</text><rect height="110" width="167.63" class="t-bg" y="40"></rect><text x="13" y="61" class="tf fk">dept_no<tspan x="154.63" class="ty">int</tspan></text><text x="13" y="86" class="tf fk">emp_no<tspan x="154.63" class="ty">int</tspan></text><text x="13" y="111" class="tf">from_date<tspan x="154.63" class="ty">DATE</tspan></text><text x="13" y="136" class="tf">to_date<tspan x="154.63" class="ty">DATE</tspan></text></svg></g></g><text class="qdbd-link" x="10" y="20">www.quickdatabasediagrams.com</text></svg>